<?xml version="1.0" standalone="no"?>
<!DOCTYPE svg PUBLIC "-//W3C//DTD SVG 20010904//EN"
 "http://www.w3.org/TR/2001/REC-SVG-20010904/DTD/svg10.dtd">
<svg version="1.0" xmlns="http://www.w3.org/2000/svg"
 width="832.000000pt" height="832.000000pt" viewBox="0 0 832.000000 832.000000"
 preserveAspectRatio="xMidYMid meet">
<metadata>
Created by potrace 1.11, written by Peter Selinger 2001-2013
</metadata>
<g transform="translate(0.000000,832.000000) scale(0.100000,-0.100000)"
fill="#000000" stroke="none">
<path d="M210 7979 c-69 -24 -138 -87 -176 -159 l-29 -55 0 -3600 c0 -2115 4
-3608 9 -3620 5 -11 10 -25 12 -32 9 -45 91 -128 162 -164 l47 -24 2664 -3
2664 -2 56 21 c67 24 67 24 109 34 17 4 32 11 32 15 0 3 6 7 14 7 20 0 180 66
188 78 4 5 8 7 8 3 0 -8 113 44 135 62 8 7 15 10 15 7 0 -3 28 9 62 27 35 19
83 44 108 57 25 13 47 27 48 32 2 4 8 7 13 7 30 0 417 268 519 360 10 8 39 33
65 55 101 84 388 378 457 467 12 17 43 56 68 87 46 58 52 67 116 156 161 224
371 612 449 830 10 28 22 55 26 60 4 6 12 26 17 45 6 19 23 69 37 110 23 67
89 294 100 344 6 25 46 216 50 236 5 26 20 129 31 205 7 55 9 70 21 200 10
112 9 595 0 690 -7 63 -10 89 -23 190 -4 33 -9 66 -20 135 -7 46 -8 51 -19
110 -4 19 -9 46 -12 60 -7 39 -64 273 -70 290 -3 8 -7 20 -8 26 -8 33 -89 273
-100 294 -7 14 -14 28 -14 32 -9 54 -169 396 -255 543 -20 33 -40 69 -46 80
-29 54 -112 180 -122 183 -4 2 -8 8 -8 13 0 9 -36 66 -50 79 -3 3 -30 39 -60
80 -30 41 -57 77 -60 80 -3 3 -41 48 -85 100 -73 87 -313 333 -395 405 -48 42
-201 166 -236 190 -15 11 -39 29 -53 41 -41 33 -209 144 -219 144 -4 0 -17 8
-28 18 -10 9 -32 24 -49 32 -16 8 -32 17 -35 20 -15 15 -320 171 -320 163 0
-3 -10 1 -22 9 -31 20 -199 88 -326 132 l-104 36 -2651 -1 c-2600 -1 -2653 -1
-2707 -20z"/>
</g>
</svg>
