<?xml version="1.0" encoding="UTF-8" standalone="no"?>
<!-- Generator: Adobe Illustrator 18.0.0, SVG Export Plug-In . SVG Version: 6.00 Build 0)  -->

<svg
   xmlns:dc="http://purl.org/dc/elements/1.1/"
   xmlns:cc="http://creativecommons.org/ns#"
   xmlns:rdf="http://www.w3.org/1999/02/22-rdf-syntax-ns#"
   xmlns:svg="http://www.w3.org/2000/svg"
   xmlns="http://www.w3.org/2000/svg"
   xmlns:sodipodi="http://sodipodi.sourceforge.net/DTD/sodipodi-0.dtd"
   xmlns:inkscape="http://www.inkscape.org/namespaces/inkscape"
   version="1.1"
   id="Capa_1"
   x="0px"
   y="0px"
   viewBox="0 0 56.823 56.823"
   style="enable-background:new 0 0 56.823 56.823;"
   xml:space="preserve"
   sodipodi:docname="groceries.svg"
   inkscape:version="0.92.5 (0.92.5+69)"><metadata
   id="metadata55"><rdf:RDF><cc:Work
       rdf:about=""><dc:format>image/svg+xml</dc:format><dc:type
         rdf:resource="http://purl.org/dc/dcmitype/StillImage" /><dc:title></dc:title></cc:Work></rdf:RDF></metadata><defs
   id="defs53">
	
	
	
	
	
	
	
	
</defs><sodipodi:namedview
   pagecolor="#ffffff"
   bordercolor="#666666"
   borderopacity="1"
   objecttolerance="10"
   gridtolerance="10"
   guidetolerance="10"
   inkscape:pageopacity="0"
   inkscape:pageshadow="2"
   inkscape:window-width="1600"
   inkscape:window-height="837"
   id="namedview51"
   showgrid="false"
   inkscape:zoom="8.3064953"
   inkscape:cx="31.120111"
   inkscape:cy="29.39709"
   inkscape:window-x="0"
   inkscape:window-y="30"
   inkscape:window-maximized="1"
   inkscape:current-layer="Capa_1" />
<g
   id="g4585"><path
     style="fill:#c87137"
     d="m 36.272,25.308 c 0.106,0.036 0.215,0.053 0.321,0.053 0.417,0 0.806,-0.262 0.947,-0.679 0.313,-0.918 1.314,-1.411 2.232,-1.1 1.962,0.664 4.103,-0.389 4.768,-2.352 0.178,-0.522 -0.102,-1.091 -0.625,-1.269 -0.525,-0.177 -1.091,0.103 -1.269,0.626 -0.312,0.919 -1.313,1.412 -2.232,1.1 -1.959,-0.661 -4.102,0.39 -4.768,2.352 -0.177,0.522 0.103,1.091 0.626,1.269 z"
     id="path2"
     inkscape:connector-curvature="0" /><path
     style="fill:#c87137"
     d="m 38.638,18.34 c 0.106,0.036 0.215,0.053 0.321,0.053 0.417,0 0.806,-0.262 0.947,-0.679 0.151,-0.445 0.466,-0.805 0.888,-1.013 0.422,-0.208 0.899,-0.238 1.344,-0.087 1.962,0.664 4.102,-0.389 4.768,-2.353 0.178,-0.522 -0.103,-1.091 -0.625,-1.269 -0.523,-0.18 -1.091,0.103 -1.268,0.626 -0.312,0.92 -1.311,1.413 -2.232,1.101 -0.952,-0.323 -1.971,-0.257 -2.871,0.188 -0.9,0.444 -1.574,1.213 -1.897,2.164 -0.179,0.523 0.102,1.091 0.625,1.269 z"
     id="path4"
     inkscape:connector-curvature="0" /><path
     style="fill:#c87137"
     d="m 41.002,11.372 c 0.107,0.036 0.215,0.053 0.322,0.053 0.417,0 0.806,-0.262 0.947,-0.679 0.23,-0.678 0.971,-1.043 1.648,-0.813 0.835,0.283 1.73,0.225 2.521,-0.164 C 47.23,9.379 47.821,8.705 48.105,7.87 48.283,7.348 48.003,6.779 47.48,6.601 46.955,6.422 46.389,6.704 46.211,7.227 46.099,7.556 45.866,7.822 45.555,7.975 45.244,8.128 44.892,8.151 44.562,8.038 42.84,7.457 40.961,8.381 40.377,10.102 c -0.177,0.524 0.102,1.092 0.625,1.27 z"
     id="path6"
     inkscape:connector-curvature="0" /><path
     style="fill:#00aad4"
     d="M 48.246,25.234 C 48.072,25.115 47.876,25.047 47.676,25.021 49.663,18.564 50.753,12.238 50.909,6.213 50.958,4.318 50.032,1.788 48.165,0.617 47.269,0.054 45.801,-0.41 43.895,0.571 40.908,2.112 38.772,6.645 37.056,10.289 36.957,10.499 36.86,10.704 36.764,10.907 36.385,9.164 35.233,7.673 33.595,6.895 33.209,5.039 31.737,3.585 29.887,3.208 29.867,3.104 29.842,3.002 29.811,2.899 29.43,1.597 28.281,0.617 26.952,0.459 26.203,0.37 25.461,0.525 24.827,0.896 24.287,0.595 23.681,0.435 23.059,0.435 c -1.739,0 -3.2,1.213 -3.581,2.836 -1.901,0.518 -3.295,2.263 -3.31,4.291 -2.169,0.56 -3.749,2.52 -3.749,4.851 0,0.618 0.116,1.23 0.339,1.807 -0.563,0.695 -0.875,1.565 -0.875,2.478 0,0.548 0.113,1.076 0.326,1.564 -0.999,-1.09 -2.405,-1.981 -3.984,-1.923 -0.552,0.018 -0.986,0.479 -0.969,1.031 0.017,0.541 0.461,0.969 0.999,0.969 0.034,0.001 0.065,-0.002 0.097,-0.002 0.937,0 1.808,0.62 2.442,1.34 -1.586,0.457 -3.498,1.201 -4.39,2.883 -0.537,1.015 -0.6,2.26 -0.242,3.686 -0.173,0.289 -0.268,0.625 -0.25,0.983 l 1.702,24.187 c 0.155,3.033 2.655,5.408 5.691,5.408 h 28.071 c 3.036,0 5.536,-2.375 5.69,-5.39 l 1.745,-25.028 c 0,-0.006 10e-4,-0.012 10e-4,-0.018 0.028,-0.461 -0.185,-0.892 -0.566,-1.154 z M 37.58,13.767 c 0.396,-0.739 0.828,-1.655 1.285,-2.626 1.503,-3.192 3.563,-7.563 5.946,-8.793 0.87,-0.448 1.619,-0.457 2.291,-0.038 1.159,0.728 1.841,2.565 1.808,3.851 -0.153,5.912 -1.233,12.134 -3.211,18.494 -0.065,0.209 -0.209,0.631 -0.414,1.21 l -1.704,0.757 c -0.037,0.017 -0.073,0.035 -0.108,0.057 -0.492,0.295 -1.044,0.441 -1.596,0.447 -0.552,-0.006 -1.103,-0.152 -1.595,-0.447 l -0.713,-0.428 c -0.82,-0.492 -1.739,-0.738 -2.658,-0.738 -0.011,0 -0.022,0.002 -0.034,0.002 -0.93,-0.006 -1.862,0.237 -2.692,0.736 l -0.712,0.428 c -0.397,0.238 -0.836,0.354 -1.28,0.404 0.025,-0.087 0.054,-0.172 0.08,-0.258 0.274,-0.931 0.568,-1.849 0.876,-2.76 0.117,-0.346 0.239,-0.69 0.361,-1.033 0.257,-0.723 0.526,-1.437 0.804,-2.146 0.124,-0.317 0.245,-0.637 0.373,-0.951 0.872,-2.127 1.834,-4.19 2.893,-6.168 z m -12.748,2.372 c 0.117,-0.15 0.231,-0.296 0.339,-0.438 0,-0.002 0.001,-0.003 0.002,-0.004 0.079,-0.105 0.148,-0.214 0.206,-0.323 0.246,-0.463 0.304,-0.983 0.19,-1.491 l 4.174,-0.913 c 0.028,0.128 0.058,0.255 0.106,0.373 0.187,0.458 0.521,0.839 0.986,1.105 0.152,0.084 0.311,0.168 0.475,0.255 0.135,0.071 0.27,0.145 0.406,0.219 0.065,0.035 0.131,0.07 0.196,0.106 0.119,0.067 0.234,0.141 0.35,0.214 0.099,0.061 0.197,0.124 0.293,0.191 0.111,0.077 0.217,0.162 0.323,0.248 0.093,0.076 0.182,0.159 0.27,0.244 0.095,0.093 0.189,0.188 0.276,0.292 0.154,0.184 0.302,0.375 0.423,0.604 -0.424,0.936 -0.823,1.891 -1.209,2.854 -0.06,0.149 -0.124,0.294 -0.183,0.443 -1.096,0.278 -2.155,0.798 -3.463,1.729 -1.648,1.171 -2.875,1.482 -4.897,1.189 l -0.607,-2.779 c -0.412,-1.879 0.481,-3.017 1.344,-4.118 z m 4.959,-6.073 c 0.026,-0.005 0.052,-0.008 0.078,-0.008 0.189,0 0.366,0.135 0.407,0.325 0.032,0.144 -0.022,0.257 -0.058,0.312 -0.035,0.054 -0.114,0.149 -0.257,0.18 l -5.524,1.209 c -0.22,0.048 -0.444,-0.098 -0.492,-0.316 -0.048,-0.219 0.097,-0.444 0.316,-0.492 l 2.935,-0.642 z m -3.232,15.467 c -0.076,0.005 -0.153,0.007 -0.229,0.015 -0.545,0.055 -1.083,0.193 -1.594,0.423 l -0.191,-0.875 c 0.288,0.024 0.575,0.048 0.844,0.048 1.744,0 3.148,-0.519 4.762,-1.667 0.508,-0.362 0.958,-0.636 1.386,-0.863 -0.092,0.261 -0.183,0.521 -0.272,0.783 -0.064,0.188 -0.133,0.373 -0.195,0.562 -0.294,0.89 -0.574,1.787 -0.835,2.692 L 29.57,26.253 c -0.82,-0.492 -1.739,-0.738 -2.658,-0.738 -0.012,0 -0.025,0.002 -0.037,0.002 -0.106,-0.002 -0.211,0.01 -0.316,0.016 z m -11.961,-10.341 0.655,-0.54 -0.425,-0.733 c -0.266,-0.46 -0.407,-0.98 -0.407,-1.506 0,-1.62 1.269,-2.941 2.889,-3.009 L 18.524,9.353 18.241,8.171 C 18.193,7.973 18.169,7.778 18.169,7.593 c 0,-1.288 1.006,-2.373 2.29,-2.471 l 0.924,-0.07 V 4.057 c 0.029,-0.899 0.77,-1.622 1.677,-1.622 0.522,0 0.896,0.238 1.117,0.438 l 0.701,0.633 0.672,-0.664 c 0.308,-0.304 0.731,-0.446 1.167,-0.396 0.536,0.063 1.02,0.481 1.176,1.018 0.053,0.18 0.068,0.354 0.047,0.531 l -0.117,1.117 h 1.126 c 1.437,0 2.639,1.123 2.738,2.557 l 0.045,0.657 0.621,0.218 c 1.563,0.549 2.591,2.028 2.556,3.683 -0.015,0.707 -0.243,1.388 -0.656,1.985 -0.669,-0.568 -1.39,-0.951 -1.996,-1.27 C 32.1,12.859 31.948,12.779 31.795,12.694 31.752,12.67 31.7,12.628 31.682,12.523 c -0.024,-0.144 0.03,-0.317 0.139,-0.444 0.436,-0.506 0.611,-1.196 0.47,-1.847 L 32.17,9.681 C 32.049,9.125 31.717,8.65 31.237,8.342 30.758,8.035 30.188,7.932 29.633,8.054 l -0.268,0.059 c -0.003,0.001 -0.006,0 -0.009,0.001 l -2.935,0.642 -2.864,0.625 c -0.555,0.121 -1.03,0.452 -1.338,0.933 -0.308,0.479 -0.41,1.05 -0.289,1.605 l 0.06,0.272 c 0,10e-4 0,0.002 0,0.003 0,10e-4 0.001,0.002 0.001,0.004 l 0.059,0.271 c 0.145,0.666 0.608,1.227 1.237,1.497 0.156,0.067 0.286,0.194 0.331,0.323 0.026,0.074 0.011,0.112 -0.047,0.208 0,0 0,0 0,10e-4 -0.099,0.133 -0.206,0.268 -0.315,0.407 -0.11,0.14 -0.224,0.287 -0.34,0.439 -0.039,0.051 -0.076,0.104 -0.115,0.156 -0.083,0.113 -0.166,0.228 -0.248,0.348 -0.045,0.065 -0.088,0.132 -0.132,0.2 -0.076,0.117 -0.149,0.238 -0.221,0.362 -0.042,0.072 -0.083,0.143 -0.123,0.218 -0.075,0.14 -0.143,0.287 -0.21,0.437 -0.029,0.064 -0.06,0.125 -0.086,0.192 -0.088,0.218 -0.166,0.446 -0.228,0.686 -0.01,0.038 -0.014,0.079 -0.023,0.118 -0.048,0.204 -0.087,0.415 -0.112,0.635 -0.01,0.088 -0.012,0.18 -0.018,0.271 -0.008,0.118 -0.023,0.23 -0.023,0.353 -0.004,-0.005 -0.008,-0.01 -0.012,-0.015 -0.014,-0.018 -0.028,-0.034 -0.041,-0.052 -0.174,-0.229 -0.348,-0.44 -0.523,-0.64 -0.055,-0.063 -0.111,-0.124 -0.167,-0.184 -0.147,-0.159 -0.294,-0.308 -0.442,-0.448 -0.048,-0.045 -0.096,-0.094 -0.145,-0.138 -0.187,-0.167 -0.375,-0.32 -0.564,-0.456 -0.053,-0.038 -0.107,-0.07 -0.16,-0.106 -0.142,-0.095 -0.284,-0.183 -0.428,-0.261 -0.07,-0.038 -0.139,-0.075 -0.21,-0.109 -0.149,-0.073 -0.299,-0.135 -0.45,-0.189 -0.05,-0.018 -0.1,-0.042 -0.15,-0.058 -0.164,-0.052 -0.329,-0.094 -0.495,-0.125 -0.019,-0.004 -0.038,-0.002 -0.057,-0.005 -0.034,-0.006 -0.067,-0.019 -0.101,-0.024 -0.116,-0.017 -0.226,-0.01 -0.34,-0.018 -0.08,-0.005 -0.159,-0.022 -0.239,-0.022 -0.024,0 -0.049,0.006 -0.074,0.006 -0.155,0.002 -0.305,0.02 -0.456,0.039 -0.075,0.01 -0.15,0.016 -0.225,0.03 -0.197,0.036 -0.388,0.086 -0.577,0.146 -0.029,0.009 -0.057,0.016 -0.086,0.026 -0.498,0.169 -0.97,0.408 -1.412,0.697 -0.091,-0.225 -0.139,-0.467 -0.139,-0.716 10e-4,-0.585 0.261,-1.134 0.714,-1.506 z m -6.425,8.303 c 0.423,-0.797 1.45,-1.405 3.233,-1.915 0.834,-0.238 1.608,-0.683 2.236,-1.283 0.285,-0.273 0.552,-0.504 0.81,-0.714 0.806,-0.655 1.501,-1.011 2.13,-1.092 0.014,-0.002 0.028,-0.004 0.042,-0.005 0.199,-0.022 0.392,-0.016 0.579,0.017 0.049,0.009 0.099,0.026 0.149,0.039 0.093,0.023 0.185,0.046 0.278,0.083 0.06,0.023 0.12,0.058 0.181,0.086 0.087,0.042 0.173,0.08 0.26,0.133 0.068,0.041 0.136,0.094 0.204,0.141 0.081,0.057 0.162,0.109 0.244,0.175 0.076,0.061 0.152,0.135 0.228,0.204 0.076,0.069 0.152,0.132 0.228,0.209 0.084,0.085 0.169,0.184 0.254,0.279 0.069,0.077 0.138,0.148 0.208,0.231 0.095,0.114 0.191,0.244 0.287,0.37 0.061,0.08 0.121,0.152 0.182,0.237 0.109,0.152 0.219,0.321 0.329,0.489 0.048,0.074 0.097,0.14 0.145,0.216 0.159,0.251 0.319,0.518 0.48,0.802 0.736,1.299 0.98,3.218 0.66,4.889 C 21.467,27.081 21.415,27.073 21.362,27.065 20.981,27 20.614,26.878 20.28,26.678 L 19.567,26.25 c -0.82,-0.492 -1.739,-0.738 -2.658,-0.738 -0.011,0 -0.022,0.002 -0.034,0.002 -0.93,-0.006 -1.862,0.237 -2.692,0.736 l -0.347,0.208 c -0.605,0.363 -1.283,0.546 -1.961,0.552 -0.679,-0.006 -1.356,-0.188 -1.961,-0.552 L 8.569,25.65 c 0,0 -0.001,0 -0.001,-10e-4 C 8.391,25.544 8.2,25.472 8.004,25.436 7.847,24.645 7.903,24.005 8.173,23.495 Z m 36.901,27.818 c -0.101,1.968 -1.724,3.51 -3.694,3.51 H 13.308 c -1.971,0 -3.593,-1.542 -3.695,-3.529 l -1.664,-23.642 0.87,0.522 c 0.943,0.566 2.002,0.844 3.058,0.838 1.057,0.006 2.115,-0.272 3.058,-0.838 l 0.347,-0.208 c 0.492,-0.296 1.043,-0.442 1.595,-0.448 0.552,0.006 1.103,0.152 1.596,0.448 l 0.713,0.428 c 0.902,0.541 1.924,0.773 2.934,0.718 0.09,-0.004 0.18,-0.004 0.271,-0.012 0.011,-0.001 0.021,-0.007 0.033,-0.008 0.683,-0.077 1.353,-0.292 1.971,-0.644 0.058,-0.021 0.12,-0.022 0.174,-0.054 l 0.713,-0.428 c 0.492,-0.296 1.043,-0.442 1.595,-0.448 0.552,0.006 1.103,0.152 1.596,0.448 l 0.713,0.428 c 0.757,0.453 1.599,0.688 2.446,0.723 0.017,10e-4 0.035,0.003 0.052,0.003 0.292,0.009 0.584,0 0.874,-0.041 0.166,-0.021 0.327,-0.063 0.49,-0.1 0.079,-0.019 0.158,-0.036 0.236,-0.059 0.444,-0.123 0.879,-0.284 1.284,-0.527 v 0 l 0.713,-0.428 c 0.492,-0.296 1.043,-0.442 1.595,-0.448 0.552,0.006 1.103,0.152 1.596,0.448 l 0.713,0.428 c 0.826,0.495 1.753,0.738 2.679,0.734 0.015,0 0.031,0.003 0.046,0.003 0.898,0 1.797,-0.234 2.603,-0.704 l 1.962,-0.872 c 0.042,-0.019 0.072,-0.055 0.111,-0.079 l 0.153,-0.068 z"
     id="path8"
     inkscape:connector-curvature="0" /><path
     style="fill:#2a7fff"
     d="m 11.911,43.004 h 7 c 0.552,0 1,-0.447 1,-1 0,-0.553 -0.448,-1 -1,-1 h -7 c -0.552,0 -1,0.447 -1,1 0,0.553 0.448,1 1,1 z"
     id="path10"
     inkscape:connector-curvature="0" /><path
     style="fill:#2a7fff"
     d="m 11.911,47.004 h 9 c 0.552,0 1,-0.447 1,-1 0,-0.553 -0.448,-1 -1,-1 h -9 c -0.552,0 -1,0.447 -1,1 0,0.553 0.448,1 1,1 z"
     id="path12"
     inkscape:connector-curvature="0" /><path
     style="fill:#2a7fff"
     d="m 22.911,49.004 h -11 c -0.552,0 -1,0.447 -1,1 0,0.553 0.448,1 1,1 h 11 c 0.552,0 1,-0.447 1,-1 0,-0.553 -0.448,-1 -1,-1 z"
     id="path14"
     inkscape:connector-curvature="0" /><path
     style="fill:#2a7fff"
     d="m 28.911,49.004 h -2 c -0.552,0 -1,0.447 -1,1 0,0.553 0.448,1 1,1 h 2 c 0.552,0 1,-0.447 1,-1 0,-0.553 -0.448,-1 -1,-1 z"
     id="path16"
     inkscape:connector-curvature="0" /></g>
<g
   id="g20">
</g>
<g
   id="g22">
</g>
<g
   id="g24">
</g>
<g
   id="g26">
</g>
<g
   id="g28">
</g>
<g
   id="g30">
</g>
<g
   id="g32">
</g>
<g
   id="g34">
</g>
<g
   id="g36">
</g>
<g
   id="g38">
</g>
<g
   id="g40">
</g>
<g
   id="g42">
</g>
<g
   id="g44">
</g>
<g
   id="g46">
</g>
<g
   id="g48">
</g>
</svg>