<svg width="224" height="48" viewBox="0 0 224 48" fill="none" xmlns="http://www.w3.org/2000/svg">
<path d="M0 2C0 0.895432 0.895431 0 2 0H31C32.1046 0 33 0.895431 33 2V46C33 47.1046 32.1046 48 31 48H2C0.895431 48 0 47.1046 0 46V2Z" fill="#3B84F1"/>
<path fill-rule="evenodd" clip-rule="evenodd" d="M34.7421 48C44.7148 44.9652 52 35.3688 52 23.9999C52 12.6312 44.715 3.03495 34.7425 0H21.2575C11.285 3.03495 4 12.6312 4 23.9999C4 35.3688 11.2852 44.9652 21.2579 48H34.7421Z" fill="#3B84F1"/>
<path d="M33.5625 34.9999L28.0781 34.9999L28.0781 16.4843L19.9063 16.4843L19.9063 34.9999L14.4219 34.9999L14.4219 12.2499L33.5625 12.2499L33.5625 34.9999Z" fill="white"/>
<path d="M81.9922 34H77.877V17.416H69.9062V34H65.8047V14.0938H81.9922V34ZM99.2182 26.7402C99.2182 29.0189 98.6987 30.8464 97.6596 32.2227C96.6297 33.5898 95.2351 34.2734 93.476 34.2734C91.9812 34.2734 90.7735 33.7539 89.853 32.7148V39.6875H85.9018V19.207H89.5659L89.7026 20.6562C90.6596 19.5078 91.9083 18.9336 93.4487 18.9336C95.2716 18.9336 96.6889 19.6081 97.7006 20.957C98.7123 22.306 99.2182 24.1654 99.2182 26.5352V26.7402ZM95.267 26.4531C95.267 25.0768 95.0209 24.015 94.5287 23.2676C94.0457 22.5202 93.3393 22.1465 92.4096 22.1465C91.17 22.1465 90.3178 22.6204 89.853 23.5684V29.625C90.336 30.6003 91.1974 31.0879 92.437 31.0879C94.3237 31.0879 95.267 29.543 95.267 26.4531ZM101.624 26.4668C101.624 24.9993 101.906 23.6914 102.472 22.543C103.037 21.3945 103.848 20.5059 104.905 19.877C105.972 19.248 107.207 18.9336 108.61 18.9336C110.606 18.9336 112.233 19.5443 113.491 20.7656C114.758 21.987 115.464 23.6458 115.61 25.7422L115.638 26.7539C115.638 29.0234 115.004 30.8464 113.737 32.2227C112.47 33.5898 110.77 34.2734 108.638 34.2734C106.505 34.2734 104.8 33.5898 103.524 32.2227C102.257 30.8555 101.624 28.9961 101.624 26.6445V26.4668ZM105.575 26.7539C105.575 28.1576 105.839 29.2331 106.368 29.9805C106.897 30.7188 107.653 31.0879 108.638 31.0879C109.595 31.0879 110.342 30.7233 110.88 29.9941C111.418 29.2559 111.686 28.0801 111.686 26.4668C111.686 25.0905 111.418 24.0241 110.88 23.2676C110.342 22.5111 109.585 22.1328 108.61 22.1328C107.644 22.1328 106.897 22.5111 106.368 23.2676C105.839 24.015 105.575 25.1771 105.575 26.7539ZM117.852 30.8145C118.745 29.8665 119.351 28.9277 119.67 27.998C119.989 27.0684 120.167 25.7513 120.203 24.0469L120.313 19.207H131.196V30.8145H133.328V38.4434H129.377V34H120.614V38.4434H116.58V30.8145H117.852ZM122.514 30.8145H127.258V22.4746H124.182L124.155 24.252C124.073 26.9681 123.526 29.1556 122.514 30.8145ZM135.283 26.4668C135.283 24.9993 135.566 23.6914 136.131 22.543C136.696 21.3945 137.507 20.5059 138.564 19.877C139.631 19.248 140.866 18.9336 142.269 18.9336C144.265 18.9336 145.892 19.5443 147.15 20.7656C148.417 21.987 149.123 23.6458 149.269 25.7422L149.297 26.7539C149.297 29.0234 148.663 30.8464 147.396 32.2227C146.129 33.5898 144.429 34.2734 142.297 34.2734C140.164 34.2734 138.459 33.5898 137.183 32.2227C135.916 30.8555 135.283 28.9961 135.283 26.6445V26.4668ZM139.234 26.7539C139.234 28.1576 139.498 29.2331 140.027 29.9805C140.556 30.7188 141.312 31.0879 142.297 31.0879C143.254 31.0879 144.001 30.7233 144.539 29.9941C145.077 29.2559 145.345 28.0801 145.345 26.4668C145.345 25.0905 145.077 24.0241 144.539 23.2676C144.001 22.5111 143.245 22.1328 142.269 22.1328C141.303 22.1328 140.556 22.5111 140.027 23.2676C139.498 24.015 139.234 25.1771 139.234 26.7539ZM152.55 34V19.207H158.73C160.744 19.207 162.289 19.5625 163.364 20.2734C164.44 20.9844 164.978 22.0052 164.978 23.3359C164.978 24.0195 164.75 24.6348 164.294 25.1816C163.848 25.7194 163.191 26.1341 162.325 26.4258C163.383 26.6263 164.212 27.0228 164.814 27.6152C165.424 28.1986 165.73 28.9186 165.73 29.7754C165.73 31.1517 165.21 32.1999 164.171 32.9199C163.141 33.64 161.642 34 159.673 34H152.55ZM156.501 27.8613V30.8418H159.687C161.081 30.8418 161.779 30.3542 161.779 29.3789C161.779 28.3854 161.113 27.8796 159.782 27.8613H156.501ZM156.501 25.209H158.948C160.334 25.1908 161.027 24.7441 161.027 23.8691C161.027 23.3314 160.835 22.9486 160.452 22.7207C160.079 22.4928 159.504 22.3789 158.73 22.3789H156.501V25.209ZM175.518 34.2734C173.349 34.2734 171.581 33.6081 170.214 32.2773C168.855 30.9466 168.176 29.1738 168.176 26.959V26.5762C168.176 25.0905 168.464 23.7643 169.038 22.5977C169.612 21.4219 170.423 20.5195 171.471 19.8906C172.529 19.2526 173.732 18.9336 175.081 18.9336C177.104 18.9336 178.695 19.5716 179.852 20.8477C181.019 22.1237 181.602 23.9329 181.602 26.2754V27.8887H172.182C172.31 28.8548 172.693 29.6296 173.331 30.2129C173.978 30.7962 174.794 31.0879 175.778 31.0879C177.3 31.0879 178.49 30.5365 179.346 29.4336L181.288 31.6074C180.695 32.446 179.893 33.1022 178.881 33.5762C177.87 34.041 176.749 34.2734 175.518 34.2734ZM175.067 22.1328C174.283 22.1328 173.645 22.3971 173.153 22.9258C172.67 23.4544 172.36 24.2109 172.223 25.1953H177.719V24.8809C177.701 24.0059 177.464 23.3314 177.008 22.8574C176.553 22.3743 175.906 22.1328 175.067 22.1328ZM184.623 30.8145C185.516 29.8665 186.122 28.9277 186.441 27.998C186.76 27.0684 186.938 25.7513 186.975 24.0469L187.084 19.207H197.967V30.8145H200.1V38.4434H196.149V34H187.385V38.4434H183.352V30.8145H184.623ZM189.285 30.8145H194.029V22.4746H190.953L190.926 24.252C190.844 26.9681 190.297 29.1556 189.285 30.8145Z" fill="black"/>
</svg>
