<svg width="52" height="48" viewBox="0 0 52 48" fill="none" xmlns="http://www.w3.org/2000/svg">
<path d="M0 2C0 0.895432 0.895431 0 2 0H31C32.1046 0 33 0.895431 33 2V46C33 47.1046 32.1046 48 31 48H2C0.895431 48 0 47.1046 0 46V2Z" fill="#3B84F1"/>
<path fill-rule="evenodd" clip-rule="evenodd" d="M34.7421 48C44.7148 44.9652 52 35.3688 52 23.9999C52 12.6312 44.715 3.03495 34.7425 0H21.2575C11.285 3.03495 4 12.6312 4 23.9999C4 35.3688 11.2852 44.9652 21.2579 48H34.7421Z" fill="#3B84F1"/>
<path d="M33.5625 34.9999L28.0781 34.9999L28.0781 16.4843L19.9063 16.4843L19.9063 34.9999L14.4219 34.9999L14.4219 12.2499L33.5625 12.2499L33.5625 34.9999Z" fill="white"/>
</svg>
