<svg width="136" height="26" viewBox="0 0 136 26" fill="none" xmlns="http://www.w3.org/2000/svg">
<path d="M16.9922 20H12.877V3.41602H4.90625V20H0.804688V0.09375H16.9922V20ZM34.2182 12.7402C34.2182 15.0189 33.6987 16.8464 32.6596 18.2227C31.6297 19.5898 30.2351 20.2734 28.476 20.2734C26.9812 20.2734 25.7735 19.7539 24.853 18.7148V25.6875H20.9018V5.20703H24.5659L24.7026 6.65625C25.6596 5.50781 26.9083 4.93359 28.4487 4.93359C30.2716 4.93359 31.6889 5.60807 32.7006 6.95703C33.7123 8.30599 34.2182 10.1654 34.2182 12.5352V12.7402ZM30.267 12.4531C30.267 11.0768 30.0209 10.015 29.5287 9.26758C29.0457 8.52018 28.3393 8.14648 27.4096 8.14648C26.17 8.14648 25.3178 8.62044 24.853 9.56836V15.625C25.336 16.6003 26.1974 17.0879 27.437 17.0879C29.3237 17.0879 30.267 15.543 30.267 12.4531ZM36.6239 12.4668C36.6239 10.9993 36.9065 9.69141 37.4716 8.54297C38.0367 7.39453 38.8479 6.50586 39.9052 5.87695C40.9716 5.24805 42.2066 4.93359 43.6102 4.93359C45.6063 4.93359 47.2333 5.54427 48.4911 6.76562C49.758 7.98698 50.4644 9.64583 50.6102 11.7422L50.6376 12.7539C50.6376 15.0234 50.0041 16.8464 48.7372 18.2227C47.4703 19.5898 45.7704 20.2734 43.6376 20.2734C41.5048 20.2734 39.8003 19.5898 38.5243 18.2227C37.2574 16.8555 36.6239 14.9961 36.6239 12.6445V12.4668ZM40.5751 12.7539C40.5751 14.1576 40.8394 15.2331 41.368 15.9805C41.8967 16.7188 42.6532 17.0879 43.6376 17.0879C44.5946 17.0879 45.342 16.7233 45.8798 15.9941C46.4175 15.2559 46.6864 14.0801 46.6864 12.4668C46.6864 11.0905 46.4175 10.0241 45.8798 9.26758C45.342 8.51107 44.5855 8.13281 43.6102 8.13281C42.6441 8.13281 41.8967 8.51107 41.368 9.26758C40.8394 10.015 40.5751 11.1771 40.5751 12.7539ZM52.8519 16.8145C53.7451 15.8665 54.3512 14.9277 54.6702 13.998C54.9892 13.0684 55.167 11.7513 55.2034 10.0469L55.3128 5.20703H66.1956V16.8145H68.3284V24.4434H64.3773V20H55.6136V24.4434H51.5804V16.8145H52.8519ZM57.514 16.8145H62.2581V8.47461H59.182L59.1546 10.252C59.0726 12.9681 58.5257 15.1556 57.514 16.8145ZM70.283 12.4668C70.283 10.9993 70.5655 9.69141 71.1306 8.54297C71.6957 7.39453 72.5069 6.50586 73.5642 5.87695C74.6306 5.24805 75.8656 4.93359 77.2693 4.93359C79.2654 4.93359 80.8923 5.54427 82.1502 6.76562C83.4171 7.98698 84.1235 9.64583 84.2693 11.7422L84.2966 12.7539C84.2966 15.0234 83.6632 16.8464 82.3962 18.2227C81.1293 19.5898 79.4295 20.2734 77.2966 20.2734C75.1638 20.2734 73.4594 19.5898 72.1834 18.2227C70.9164 16.8555 70.283 14.9961 70.283 12.6445V12.4668ZM74.2341 12.7539C74.2341 14.1576 74.4985 15.2331 75.0271 15.9805C75.5558 16.7188 76.3123 17.0879 77.2966 17.0879C78.2537 17.0879 79.0011 16.7233 79.5388 15.9941C80.0766 15.2559 80.3455 14.0801 80.3455 12.4668C80.3455 11.0905 80.0766 10.0241 79.5388 9.26758C79.0011 8.51107 78.2446 8.13281 77.2693 8.13281C76.3031 8.13281 75.5558 8.51107 75.0271 9.26758C74.4985 10.015 74.2341 11.1771 74.2341 12.7539ZM87.55 20V5.20703H93.7297C95.744 5.20703 97.2889 5.5625 98.3645 6.27344C99.44 6.98438 99.9777 8.00521 99.9777 9.33594C99.9777 10.0195 99.7499 10.6348 99.2941 11.1816C98.8475 11.7194 98.1913 12.1341 97.3254 12.4258C98.3827 12.6263 99.2121 13.0228 99.8137 13.6152C100.424 14.1986 100.73 14.9186 100.73 15.7754C100.73 17.1517 100.21 18.1999 99.1711 18.9199C98.1411 19.64 96.6418 20 94.673 20H87.55ZM91.5012 13.8613V16.8418H94.6867C96.0813 16.8418 96.7785 16.3542 96.7785 15.3789C96.7785 14.3854 96.1132 13.8796 94.7824 13.8613H91.5012ZM91.5012 11.209H93.9484C95.3339 11.1908 96.0266 10.7441 96.0266 9.86914C96.0266 9.33138 95.8352 8.94857 95.4523 8.7207C95.0786 8.49284 94.5044 8.37891 93.7297 8.37891H91.5012V11.209ZM110.518 20.2734C108.349 20.2734 106.581 19.6081 105.214 18.2773C103.855 16.9466 103.176 15.1738 103.176 12.959V12.5762C103.176 11.0905 103.464 9.76432 104.038 8.59766C104.612 7.42188 105.423 6.51953 106.471 5.89062C107.529 5.2526 108.732 4.93359 110.081 4.93359C112.104 4.93359 113.695 5.57161 114.852 6.84766C116.019 8.1237 116.602 9.93294 116.602 12.2754V13.8887H107.182C107.31 14.8548 107.693 15.6296 108.331 16.2129C108.978 16.7962 109.794 17.0879 110.778 17.0879C112.3 17.0879 113.49 16.5365 114.346 15.4336L116.288 17.6074C115.695 18.446 114.893 19.1022 113.881 19.5762C112.87 20.041 111.749 20.2734 110.518 20.2734ZM110.067 8.13281C109.283 8.13281 108.645 8.39714 108.153 8.92578C107.67 9.45443 107.36 10.2109 107.223 11.1953H112.719V10.8809C112.701 10.0059 112.464 9.33138 112.008 8.85742C111.553 8.37435 110.906 8.13281 110.067 8.13281ZM119.623 16.8145C120.516 15.8665 121.122 14.9277 121.441 13.998C121.76 13.0684 121.938 11.7513 121.975 10.0469L122.084 5.20703H132.967V16.8145H135.1V24.4434H131.149V20H122.385V24.4434H118.352V16.8145H119.623ZM124.285 16.8145H129.029V8.47461H125.953L125.926 10.252C125.844 12.9681 125.297 15.1556 124.285 16.8145Z" fill="black"/>
</svg>
